<mxfile host="app.diagrams.net" modified="2024-02-03T18:44:29.225Z" agent="Mozilla/5.0 (Windows NT 10.0; Win64; x64) AppleWebKit/537.36 (KHTML, like Gecko) Chrome/120.0.0.0 Safari/537.36 OPR/106.0.0.0" version="23.1.1" etag="pt47pBmvLdJnIJAi0OkG" type="github">
  <diagram name="Page-1" id="oEtw2ipKZqIlnSSQdHQF">
    <mxGraphModel>
      <root>
        <mxCell id="0" />
        <mxCell id="1" parent="0" />
      </root>
    </mxGraphModel>
  </diagram>
</mxfile>
